HIERARCHY
ROOT Hips
{
 OFFSET 0.000000 0.000000 0.000000
 CHANNELS 6 Xposition Yposition Zposition Yrotation Xrotation Zrotation
 JOINT Chest
 {
  OFFSET 0.000000 10.678932 0.006280
  CHANNELS 3 Yrotation Xrotation Zrotation
  JOINT Chest2
  {
   OFFSET 0.000000 10.491159 -0.011408
   CHANNELS 3 Yrotation Xrotation Zrotation
   JOINT Chest3
   {
    OFFSET 0.000000 9.479342 0.000000
    CHANNELS 3 Yrotation Xrotation Zrotation
    JOINT Chest4
    {
     OFFSET 0.000000 9.479342 0.000000
     CHANNELS 3 Yrotation Xrotation Zrotation
     JOINT Neck
     {
      OFFSET 0.000000 13.535332 0.000000
      CHANNELS 3 Yrotation Xrotation Zrotation
      JOINT Head
      {
       OFFSET 0.000000 8.819083 -0.027129
       CHANNELS 3 Yrotation Xrotation Zrotation
       End Site
       {
        OFFSET 0.000000 16.966594 -0.014170
       }
      }
     }
     JOINT RightCollar
     {
      OFFSET -3.012546 7.545150 0.000000
      CHANNELS 3 Yrotation Xrotation Zrotation
      JOINT RightShoulder
      {
       OFFSET -13.683099 0.000000 0.000000
       CHANNELS 3 Yrotation Xrotation Zrotation
       JOINT RightElbow
       {
        OFFSET -26.359998 0.000000 0.000000
        CHANNELS 3 Yrotation Xrotation Zrotation
        JOINT RightWrist
        {
         OFFSET -21.746691 0.000000 0.008601
         CHANNELS 3 Yrotation Xrotation Zrotation
         End Site
         {
          OFFSET -16.348058 0.000000 0.000000
         }
        }
       }
      }
     }
     JOINT LeftCollar
     {
      OFFSET 3.012546 7.545150 0.000000
      CHANNELS 3 Yrotation Xrotation Zrotation
      JOINT LeftShoulder
      {
       OFFSET 13.683099 0.000000 0.000000
       CHANNELS 3 Yrotation Xrotation Zrotation
       JOINT LeftElbow
       {
        OFFSET 26.359998 0.000000 0.000000
        CHANNELS 3 Yrotation Xrotation Zrotation
        JOINT LeftWrist
        {
         OFFSET 21.746691 0.000000 0.008601
         CHANNELS 3 Yrotation Xrotation Zrotation
         End Site
         {
          OFFSET 16.348058 0.000000 0.000000
         }
        }
       }
      }
     }
    }
   }
  }
 }
 JOINT RightHip
 {
  OFFSET -8.622479 -0.030774 -0.003140
  CHANNELS 3 Yrotation Xrotation Zrotation
  JOINT RightKnee
  {
   OFFSET 0.000000 -37.209160 -0.002630
   CHANNELS 3 Yrotation Xrotation Zrotation
   JOINT RightAnkle
   {
    OFFSET 0.000000 -37.343279 -0.058479
    CHANNELS 3 Yrotation Xrotation Zrotation
    JOINT RightToe
    {
     OFFSET 0.000000 -8.903465 15.088070
     CHANNELS 3 Yrotation Xrotation Zrotation
     End Site
     {
      OFFSET 0.000000 -1.471739 6.884388
     }
    }
   }
  }
 }
 JOINT LeftHip
 {
  OFFSET 8.622479 -0.030774 -0.003140
  CHANNELS 3 Yrotation Xrotation Zrotation
  JOINT LeftKnee
  {
   OFFSET 0.000000 -37.209160 -0.002630
   CHANNELS 3 Yrotation Xrotation Zrotation
   JOINT LeftAnkle
   {
    OFFSET 0.000000 -37.343279 -0.058479
    CHANNELS 3 Yrotation Xrotation Zrotation
    JOINT LeftToe
    {
     OFFSET 0.000000 -8.903465 15.088070
     CHANNELS 3 Yrotation Xrotation Zrotation
     End Site
     {
      OFFSET 0.000000 -1.471739 6.884388
     }
    }
   }
  }
 }
}
MOTION
Frames: 14
Frame Time: 0.025000
-2.290190 83.315683 -16.811400 0.000000 -5.826342 0.000000 0.000000 11.116423 0.000000 0.000000 -5.290081 0.000000 0.000000 0.000000 0.000000 0.000000 0.000000 0.000000 0.000000 12.665069 0.000000 0.000000 0.575450 0.000000 0.000000 0.000000 0.000000 0.000000 0.000000 0.000000 2.337306 0.000000 0.000000 -2.337306 0.000000 0.000000 0.000000 0.000000 0.000000 0.000000 0.000000 0.000000 -2.337306 0.000000 0.000000 2.337306 0.000000 0.000000 0.000000 8.578828 0.000000 0.000000 1.905768 0.000000 0.000000 -4.658254 0.000000 0.000000 0.000000 0.000000 0.000000 8.578828 0.000000 0.000000 1.905768 0.000000 0.000000 -4.658254 0.000000 0.000000 0.000000 0.000000
72.930439 81.883472 -239.988465 -18.566878 -8.802822 -1.251141 -2.294667 4.656701 0.085421 -0.089812 0.177416 0.015602 -0.147167 0.290779 0.025424 -2.183046 4.337766 0.301874 -2.044415 15.499728 0.224348 -3.901231 -7.366612 1.178073 1.214624 -2.916285 -1.735845 13.930594 28.790040 56.146189 104.541479 17.335756 54.627712 30.788584 5.751838 -13.130615 -2.005981 -2.694780 5.073774 -31.536546 24.512004 -68.122027 -98.934064 27.390081 -56.588168 -30.118178 11.545108 47.388650 -7.768226 11.047884 -16.693760 -3.286496 -0.563011 -0.439779 7.697473 -2.701632 16.729981 0.120196 -0.374588 0.078488 -0.657868 19.369108 14.571994 17.029607 -3.970067 0.219076 -1.382830 -3.994063 -16.249422 0.066351 0.260285 0.024248
72.915013 81.883094 -239.974261 -18.684125 -8.868408 -1.291757 -2.293915 4.655271 0.110711 -0.089829 0.177337 0.016643 -0.147194 0.290649 0.027130 -2.182424 4.336039 0.327331 -2.060785 15.544704 0.211859 -3.925954 -7.283078 1.159293 1.196147 -2.855406 -1.747094 13.906776 28.805861 56.118822 104.615864 17.347021 54.579594 30.788981 5.721693 -13.067731 -2.015293 -2.714184 5.062789 -31.555179 24.553212 -68.115987 -99.000369 27.389475 -56.599230 -30.072467 11.509759 47.340665 -7.709737 11.071134 -16.656001 -3.256228 -0.504048 -0.430357 7.727767 -2.725800 16.711141 0.124432 -0.376825 0.078664 -0.610221 19.451691 14.603661 17.101779 -3.909604 0.244983 -1.368965 -4.031290 -16.253138 0.061436 0.254352 0.018686
72.903770 81.891570 -239.953054 -18.796589 -8.927118 -1.342223 -2.293734 4.659730 0.148958 -0.089955 0.177665 0.017864 -0.147388 0.291168 0.029130 -2.181752 4.339294 0.356617 -2.064569 15.587385 0.196788 -3.926299 -7.204265 1.131120 1.148948 -2.827728 -1.765489 13.898304 28.819438 56.086921 104.675754 17.348475 54.560271 30.767055 5.693063 -13.039730 -2.052170 -2.746918 5.046837 -31.621564 24.602604 -68.132444 -98.991225 27.376702 -56.567013 -30.038892 11.482839 47.298523 -7.662600 11.090725 -16.612729 -3.193951 -0.444439 -0.419521 7.738492 -2.763974 16.703138 0.120580 -0.370343 0.071726 -0.524493 19.528559 14.651396 17.159136 -3.866289 0.268228 -1.370759 -4.050314 -16.251001 0.057269 0.239772 0.013061
72.893613 81.885601 -239.931803 -18.897189 -8.978252 -1.385115 -2.314265 4.661229 0.166486 -0.091131 0.178207 0.018884 -0.149289 0.292010 0.030793 -2.203063 4.340187 0.379345 -2.054221 15.620352 0.182859 -3.900974 -7.143854 1.100204 1.111234 -2.802954 -1.788479 13.865523 28.803290 56.072986 104.758799 17.347833 54.562203 30.721472 5.672565 -12.977755 -2.072124 -2.775732 5.025474 -31.647377 24.653616 -68.127581 -98.995702 27.359964 -56.568014 -30.022412 11.477896 47.298234 -7.631600 11.107400 -16.586698 -3.139290 -0.401909 -0.397792 7.751757 -2.759463 16.694146 0.128291 -0.389896 0.070094 -0.475985 19.616647 14.683578 17.209597 -3.844718 0.288392 -1.352798 -4.083983 -16.257871 0.062445 0.247143 0.017142
72.878109 81.879505 -239.911792 -19.013376 -9.017495 -1.422700 -2.328006 4.657713 0.191168 -0.091739 0.178190 0.019850 -0.150275 0.291968 0.032374 -2.214918 4.336152 0.402049 -2.042644 15.645585 0.166659 -3.872739 -7.097904 1.064879 1.073111 -2.776047 -1.815868 13.814812 28.781403 56.054116 104.783344 17.340818 54.532484 30.690433 5.669514 -12.875030 -2.107031 -2.780909 4.984884 -31.657974 24.707303 -68.121719 -98.998757 27.354639 -56.566344 -30.004098 11.472168 47.325191 -7.580038 11.124335 -16.555808 -3.091416 -0.373260 -0.379736 7.759126 -2.779222 16.687512 0.132091 -0.385126 0.068355 -0.439614 19.701748 14.698071 17.293146 -3.829255 0.322919 -1.333879 -4.112902 -16.271568 0.062202 0.253067 0.017281
72.866199 81.875198 -239.897410 -19.115272 -9.040289 -1.454385 -2.344745 4.645137 0.203425 -0.092403 0.177684 0.020404 -0.151365 0.291142 0.033282 -2.231147 4.325161 0.415251 -2.033509 15.664129 0.154447 -3.850721 -7.064157 1.038127 1.052122 -2.750417 -1.827531 13.739642 28.769710 56.055880 104.825512 17.349716 54.552988 30.681934 5.661781 -12.846703 -2.113893 -2.781074 4.958647 -31.661717 24.768053 -68.106702 -99.007977 27.344488 -56.563572 -30.008513 11.485910 47.354366 -7.530566 11.123342 -16.525207 -3.054096 -0.344339 -0.371028 7.773320 -2.796504 16.692773 0.133843 -0.385017 0.064060 -0.464171 19.777128 14.691716 17.400289 -3.818060 0.350312 -1.300943 -4.133745 -16.277762 0.063064 0.257251 0.017309
72.859765 81.872113 -239.888378 -19.233806 -9.050876 -1.467052 -2.331852 4.638710 0.211705 -0.091613 0.177100 0.020602 -0.150089 0.290223 0.033612 -2.216801 4.320893 0.421802 -2.037202 15.666995 0.142280 -3.853051 -7.059149 1.016702 0.996211 -2.748425 -1.838029 13.712197 28.770378 56.070638 104.796562 17.345312 54.540425 30.714800 5.656852 -12.834636 -2.166563 -2.785468 4.937096 -31.616468 24.793672 -68.078769 -99.034242 27.353301 -56.596043 -30.018591 11.488117 47.397271 -7.472522 11.101948 -16.508671 -2.997153 -0.321812 -0.370213 7.770866 -2.803880 16.704429 0.134697 -0.384765 0.063294 -0.434280 19.816777 14.680669 17.454464 -3.796334 0.381961 -1.258292 -4.137863 -16.288854 0.060311 0.248171 0.021238
72.854077 81.870710 -239.881682 -19.352678 -9.064465 -1.476558 -2.320887 4.637047 0.225175 -0.090917 0.176816 0.021059 -0.148959 0.289780 0.034365 -2.202478 4.320150 0.434174 -2.042513 15.662998 0.126089 -3.857089 -7.066975 0.988590 0.958927 -2.730522 -1.850006 13.664936 28.748444 56.065081 104.764834 17.336010 54.541061 30.764879 5.652186 -12.847307 -2.183585 -2.784903 4.917985 -31.614557 24.811778 -68.066574 -99.034758 27.353949 -56.587976 -30.019384 11.494267 47.405938 -7.426518 11.088317 -16.499657 -2.951418 -0.316689 -0.361886 7.796933 -2.808849 16.708288 0.135278 -0.381475 0.065717 -0.379842 19.851891 14.679176 17.481860 -3.767711 0.406698 -1.215523 -4.166103 -16.299130 0.057532 0.251698 0.023640
72.855212 81.868320 -239.877462 -19.440236 -9.064675 -1.473588 -2.321483 4.633680 0.236609 -0.090862 0.176455 0.021333 -0.148875 0.289202 0.034815 -2.202763 4.315115 0.441375 -2.047044 15.648628 0.107598 -3.859081 -7.094156 0.956240 0.928750 -2.715025 -1.866400 13.654611 28.734727 56.073712 104.695107 17.335238 54.527419 30.823518 5.662713 -12.855426 -2.206290 -2.775663 4.908651 -31.582862 24.823193 -68.066861 -99.044361 27.353497 -56.594166 -30.016364 11.513382 47.410221 -7.404152 11.055976 -16.511628 -2.904372 -0.298243 -0.348863 7.805552 -2.814910 16.704661 0.133237 -0.379722 0.072855 -0.341472 19.866779 14.655996 17.518683 -3.754033 0.438363 -1.201436 -4.183950 -16.308458 0.059258 0.255091 0.025619
72.862266 81.865367 -239.872778 -19.489334 -9.027095 -1.436799 -2.347745 4.613185 0.232138 -0.091690 0.175255 0.020869 -0.150250 0.287267 0.034059 -2.227842 4.294113 0.430525 -2.033551 15.636008 0.089195 -3.827430 -7.118574 0.917349 0.946127 -2.695632 -1.886196 13.650658 28.715665 56.075299 104.661395 17.338862 54.558570 30.865623 5.667622 -12.906729 -2.197352 -2.770606 4.885918 -31.552042 24.836340 -68.041292 -99.015682 27.331225 -56.586776 -30.034470 11.530190 47.414016 -7.423672 10.993723 -16.558994 -2.873840 -0.292281 -0.341611 7.825445 -2.828850 16.710623 0.131145 -0.368569 0.073735 -0.341119 19.848221 14.608580 17.543878 -3.753308 0.432719 -1.190146 -4.198305 -16.302217 0.060294 0.259966 0.031240
72.864446 81.861866 -239.870056 -19.500046 -8.957835 -1.380267 -2.379078 4.575982 0.223698 -0.092565 0.173098 0.020010 -0.151722 0.283796 0.032658 -2.259724 4.259209 0.411081 -2.022859 15.628369 0.074705 -3.802316 -7.133525 0.886620 0.953699 -2.680271 -1.914971 13.680219 28.697277 56.080903 104.602489 17.346084 54.585557 30.938886 5.679610 -12.982041 -2.204540 -2.762202 4.853277 -31.522708 24.866527 -68.033277 -99.039774 27.327008 -56.592610 -30.028736 11.530358 47.458997 -7.483878 10.897409 -16.626294 -2.846840 -0.274447 -0.334951 7.850546 -2.858586 16.712997 0.123655 -0.352884 0.073069 -0.329261 19.791875 14.567204 17.528614 -3.771231 0.402229 -1.184072 -4.190527 -16.289951 0.061963 0.257023 0.036536
72.860879 81.859234 -239.865169 -19.515602 -8.894722 -1.318559 -2.419278 4.548707 0.214249 -0.093970 0.171840 0.019242 -0.154039 0.281756 0.031400 -2.298215 4.233985 0.391972 -2.007378 15.626570 0.059156 -3.767732 -7.137787 0.851962 1.000182 -2.658668 -1.932711 13.697245 28.652749 56.044582 104.559305 17.366587 54.637363 31.091321 5.715841 -13.149643 -2.157310 -2.752586 4.801105 -31.510450 24.868304 -68.041344 -99.040682 27.373531 -56.579196 -30.064466 11.541305 47.492984 -7.537423 10.802721 -16.690764 -2.805353 -0.243955 -0.337402 7.867815 -2.897574 16.711892 0.114903 -0.337617 0.073312 -0.239455 19.726418 14.553485 17.442531 -3.784775 0.365430 -1.180523 -4.186281 -16.275665 0.059435 0.248860 0.036085
72.854130 81.857163 -239.855769 -19.554109 -8.836659 -1.267935 -2.462567 4.523617 0.216953 -0.095523 0.170884 0.019109 -0.156587 0.280193 0.031182 -2.337248 4.211657 0.387893 -1.989391 15.627761 0.035106 -3.725261 -7.136821 0.800427 1.080462 -2.620038 -1.946136 13.736551 28.600262 55.973587 104.540604 17.475307 54.743295 31.439551 5.826436 -13.568184 -2.066348 -2.733210 4.763332 -31.441033 24.840734 -68.081996 -99.092054 27.433756 -56.608845 -30.090080 11.577406 47.520608 -7.546127 10.720582 -16.735192 -2.787667 -0.212787 -0.338344 7.886295 -2.929967 16.698770 0.107513 -0.327026 0.076017 -0.094194 19.667582 14.560833 17.354220 -3.805174 0.333620 -1.201038 -4.178841 -16.273641 0.053621 0.234257 0.039296
